<?xml version="1.0" standalone="no"?>
<!DOCTYPE svg PUBLIC "-//W3C//DTD SVG 20010904//EN"
 "http://www.w3.org/TR/2001/REC-SVG-20010904/DTD/svg10.dtd">
<svg version="1.0" xmlns="http://www.w3.org/2000/svg"
 width="13800.000000pt" height="7272.000000pt" viewBox="0 0 13800.000000 7272.000000"
 preserveAspectRatio="xMidYMid meet">

<g transform="translate(0.000000,7272.000000) scale(0.100000,-0.100000)"
fill="#000000" stroke="none">
<path d="M4050 70153 c-687 -67 -1269 -562 -1436 -1220 -58 -230 -55 248 -51
-6713 l3 -6385 21 -98 c82 -366 233 -643 485 -882 262 -250 564 -393 927 -440
103 -13 2884 -15 24421 -12 l24305 3 98 21 c54 12 136 34 183 48 532 162 963
615 1100 1152 58 230 55 -248 51 6713 l-3 6385 -21 98 c-82 366 -233 643 -485
882 -261 249 -563 393 -925 440 -101 13 -2900 15 -24376 13 -13344 0 -24278
-3 -24297 -5z m26245 -6898 c40 -9 105 -29 144 -45 218 -89 353 -279 396 -557
l7 -43 -175 0 -174 0 -13 61 c-29 135 -97 230 -199 278 -49 23 -69 26 -161 26
-97 0 -110 -2 -163 -30 -148 -74 -240 -249 -267 -505 -12 -122 -13 -408 0
-530 27 -255 127 -434 283 -506 57 -27 71 -29 177 -29 133 0 228 24 298 75
l42 30 0 215 0 215 -192 2 -193 3 -3 138 -3 137 371 0 370 0 0 -415 0 -414
-69 -60 c-84 -72 -169 -120 -281 -159 -130 -45 -209 -57 -370 -56 -137 0 -150
2 -239 33 -269 92 -431 283 -519 610 -24 91 -25 113 -30 398 -5 402 14 527
117 731 105 209 280 353 481 396 88 19 273 20 365 1z m-2995 -806 c0 -884 3
-843 -72 -998 -78 -162 -248 -298 -438 -348 -101 -28 -330 -25 -435 5 -273 79
-437 273 -470 560 l-7 62 180 0 179 0 7 -62 c8 -84 54 -177 110 -223 65 -53
116 -68 231 -69 89 0 106 2 156 27 63 31 126 93 159 157 48 94 50 124 50 928
l0 752 175 0 175 0 0 -791z m1292 777 c97 -19 219 -66 288 -113 122 -82 222
-224 255 -364 20 -85 20 -264 -1 -342 -57 -222 -238 -392 -489 -458 -68 -18
-118 -22 -332 -26 l-253 -5 0 -404 0 -404 -180 0 -180 0 0 1065 0 1065 409 0
c312 0 427 -3 483 -14z"/>
<path d="M28060 62585 l0 -375 200 0 c222 0 279 8 363 53 95 50 149 128 169
245 29 170 -47 334 -185 402 -79 38 -163 49 -379 50 l-168 0 0 -375z"/>
<path d="M85330 70153 c-687 -67 -1269 -562 -1436 -1220 -58 -230 -55 248 -51
-6713 l3 -6385 21 -98 c82 -366 233 -643 485 -882 262 -250 564 -393 927 -440
103 -13 2884 -15 24421 -12 l24305 3 98 21 c54 12 136 34 183 48 532 162 963
615 1100 1152 58 230 55 -248 51 6713 l-3 6385 -21 98 c-82 366 -233 643 -485
882 -261 249 -563 393 -925 440 -101 13 -2900 15 -24376 13 -13344 0 -24278
-3 -24297 -5z m27155 -6907 c186 -50 337 -169 413 -326 44 -88 82 -218 82
-277 l0 -33 -170 0 -170 0 -6 28 c-30 133 -63 200 -127 258 -59 53 -149 84
-241 84 -202 0 -343 -137 -409 -399 -20 -79 -22 -111 -22 -396 0 -343 7 -399
65 -538 77 -184 212 -277 400 -277 125 1 250 40 313 98 l27 26 0 208 0 208
-195 0 -195 0 0 140 0 140 363 0 364 0 6 -227 c4 -124 7 -308 7 -409 l0 -182
-72 -67 c-88 -81 -229 -154 -373 -192 -86 -22 -122 -26 -255 -27 -178 -1 -232
10 -368 75 -89 43 -207 144 -263 226 -45 65 -104 190 -132 278 -45 142 -52
219 -51 525 0 257 2 295 23 389 77 358 275 595 561 671 63 17 98 19 220 16 90
-2 168 -10 205 -20z m-4767 -803 c-4 -887 0 -840 -73 -988 -84 -170 -247 -299
-445 -352 -89 -24 -317 -24 -415 0 -274 68 -453 274 -484 556 l-7 71 176 0
176 0 12 -70 c22 -129 80 -212 182 -259 47 -22 69 -26 155 -26 89 0 106 3 156
27 100 50 164 130 193 243 14 51 16 165 16 827 l0 768 180 0 181 0 -3 -797z
m1347 773 c33 -9 102 -38 154 -63 162 -78 280 -219 327 -393 25 -91 25 -283 0
-365 -53 -175 -163 -305 -330 -385 -152 -73 -208 -83 -498 -88 l-248 -4 0
-404 0 -404 -175 0 -175 0 0 1066 0 1065 443 -4 c383 -3 450 -6 502 -21z
m2155 -121 l0 -145 -510 0 -510 0 0 -300 0 -300 440 0 440 0 0 -140 0 -140
-440 0 -440 0 0 -335 0 -335 515 0 515 0 0 -145 0 -145 -695 0 -695 0 0 1065
0 1065 690 0 690 0 0 -145z"/>
<path d="M108470 62586 l0 -376 200 0 c109 0 223 5 252 11 119 25 215 98 261
197 18 39 22 65 22 157 0 100 -3 116 -29 173 -40 87 -115 155 -204 183 -57 18
-99 22 -284 26 l-218 6 0 -377z"/>
<path d="M54883 62672 c-28 -15 -175 -99 -328 -187 -285 -165 -304 -180 -286
-227 11 -27 633 -390 669 -390 12 0 32 8 42 17 19 17 20 33 20 395 0 347 -1
378 -17 392 -32 27 -50 27 -100 0z"/>
<path d="M83050 62692 c-47 -15 -50 -28 -50 -186 l0 -151 -417 3 c-304 2 -424
-1 -440 -9 -33 -18 -48 -62 -34 -98 7 -15 22 -34 34 -40 16 -8 136 -11 440 -9
l417 3 0 -146 c0 -127 2 -150 18 -169 10 -12 29 -22 43 -22 37 0 659 362 670
390 18 48 1 61 -321 247 -337 194 -338 194 -360 187z"/>
<path d="M55046 62339 c-20 -16 -26 -29 -26 -59 0 -30 6 -43 26 -59 26 -21 37
-21 450 -21 293 0 431 3 448 11 29 14 51 59 41 89 -4 11 -16 30 -28 40 -20 19
-37 20 -453 20 -421 0 -432 0 -458 -21z"/>
<path d="M56345 62335 c-33 -32 -33 -78 0 -111 l25 -25 441 3 441 3 19 24 c26
32 24 77 -6 106 l-24 25 -436 0 -436 0 -24 -25z"/>
<path d="M57645 62335 c-16 -15 -25 -36 -25 -55 0 -19 9 -40 25 -55 l24 -25
436 0 436 0 24 25 c16 15 25 36 25 55 0 19 -9 40 -25 55 l-24 25 -436 0 -436
0 -24 -25z"/>
<path d="M58959 62347 c-44 -34 -47 -89 -7 -127 21 -19 34 -20 454 -20 421 0
432 0 458 21 20 16 26 29 26 59 0 30 -6 43 -26 59 -26 21 -37 21 -458 21 -323
-1 -435 -4 -447 -13z"/>
<path d="M60249 62331 c-16 -16 -29 -39 -29 -51 0 -12 13 -35 29 -51 l29 -29
431 0 430 0 27 23 c20 17 27 33 27 57 0 24 -7 40 -27 57 l-27 23 -430 0 -431
0 -29 -29z"/>
<path d="M61556 62339 c-20 -16 -26 -29 -26 -59 0 -30 6 -43 26 -59 26 -21 37
-21 456 -21 l430 0 29 29 c36 36 37 60 3 100 l-26 31 -433 0 c-422 0 -433 0
-459 -21z"/>
<path d="M62856 62339 c-35 -28 -36 -80 -1 -115 l25 -25 441 3 441 3 19 24
c27 33 24 73 -7 105 l-27 26 -432 0 c-422 0 -433 0 -459 -21z"/>
<path d="M64155 62335 c-16 -15 -25 -36 -25 -55 0 -19 9 -40 25 -55 l24 -25
436 0 436 0 24 25 c16 15 25 36 25 55 0 19 -9 40 -25 55 l-24 25 -436 0 -436
0 -24 -25z"/>
<path d="M65456 62335 c-34 -32 -35 -77 -1 -110 l24 -25 436 0 436 0 24 25
c16 15 25 36 25 55 0 19 -9 40 -25 55 l-24 25 -434 0 -434 0 -27 -25z"/>
<path d="M66769 62347 c-44 -34 -47 -89 -7 -127 21 -19 34 -20 454 -20 421 0
432 0 458 21 20 16 26 29 26 59 0 30 -6 43 -26 59 -26 21 -37 21 -458 21 -323
-1 -435 -4 -447 -13z"/>
<path d="M68064 62337 c-20 -17 -27 -33 -27 -57 0 -24 7 -40 27 -57 27 -23 30
-23 272 -23 221 0 251 -2 306 -21 132 -44 224 -139 262 -268 13 -43 16 -103
16 -282 0 -146 4 -237 11 -252 15 -34 50 -51 88 -42 61 13 63 25 59 317 -4
240 -6 268 -26 322 -55 149 -154 262 -291 330 -91 46 -162 56 -428 56 -239 0
-242 0 -269 -23z"/>
<path d="M68946 62334 c-28 -29 -32 -53 -14 -87 23 -45 33 -46 259 -47 204 0
218 1 243 21 20 16 26 29 26 59 0 30 -6 43 -26 59 -25 20 -39 21 -244 21
l-217 0 -27 -26z"/>
<path d="M69795 62335 c-16 -15 -25 -36 -25 -55 0 -19 9 -40 25 -55 l24 -25
405 0 c223 0 416 4 429 9 28 11 52 61 42 91 -4 11 -16 30 -28 40 -20 19 -37
20 -434 20 l-414 0 -24 -25z"/>
<path d="M71039 62347 c-44 -34 -47 -89 -7 -127 21 -19 34 -20 435 -20 l414 0
24 25 c16 15 25 36 25 55 0 19 -9 40 -25 55 l-24 25 -413 0 c-309 -1 -417 -4
-429 -13z"/>
<path d="M72266 62339 c-20 -16 -26 -29 -26 -59 0 -30 6 -43 26 -59 26 -20 37
-21 434 -21 397 0 408 1 434 21 20 16 26 29 26 59 0 30 -6 43 -26 59 -26 20
-37 21 -434 21 -397 0 -408 -1 -434 -21z"/>
<path d="M73495 62335 c-16 -15 -25 -36 -25 -55 0 -19 9 -40 25 -55 l24 -25
405 0 c223 0 416 4 429 9 28 11 52 61 42 91 -4 11 -16 30 -28 40 -20 19 -37
20 -434 20 l-414 0 -24 -25z"/>
<path d="M74739 62347 c-44 -34 -47 -89 -7 -127 21 -19 34 -20 435 -20 l414 0
24 25 c16 15 25 36 25 55 0 19 -9 40 -25 55 l-24 25 -413 0 c-309 -1 -417 -4
-429 -13z"/>
<path d="M75966 62339 c-20 -16 -26 -29 -26 -59 0 -30 6 -43 26 -59 26 -20 37
-21 434 -21 397 0 408 1 434 21 20 16 26 29 26 59 0 30 -6 43 -26 59 -26 20
-37 21 -434 21 -397 0 -408 -1 -434 -21z"/>
<path d="M77195 62335 c-16 -15 -25 -36 -25 -55 0 -19 9 -40 25 -55 l24 -25
405 0 c223 0 416 4 429 9 28 11 52 61 42 91 -4 11 -16 30 -28 40 -20 19 -37
20 -434 20 l-414 0 -24 -25z"/>
<path d="M78439 62347 c-44 -34 -47 -89 -7 -127 21 -19 34 -20 435 -20 l414 0
24 25 c16 15 25 36 25 55 0 19 -9 40 -25 55 l-24 25 -413 0 c-309 -1 -417 -4
-429 -13z"/>
<path d="M79666 62339 c-20 -16 -26 -29 -26 -59 0 -30 6 -43 26 -59 26 -20 37
-21 434 -21 397 0 408 1 434 21 20 16 26 29 26 59 0 30 -6 43 -26 59 -26 20
-37 21 -434 21 -397 0 -408 -1 -434 -21z"/>
<path d="M80895 62335 c-16 -15 -25 -36 -25 -55 0 -19 9 -40 25 -55 l24 -25
405 0 c223 0 416 4 429 9 28 11 52 61 42 91 -4 11 -16 30 -28 40 -20 19 -37
20 -434 20 l-414 0 -24 -25z"/>
<path d="M68945 60995 l-25 -24 0 -416 0 -417 29 -29 c36 -36 60 -37 100 -3
l31 26 0 419 0 420 -25 24 c-15 16 -36 25 -55 25 -19 0 -40 -9 -55 -25z"/>
<path d="M68945 59745 l-25 -24 0 -415 0 -415 23 -26 c31 -37 82 -37 114 -1
l23 27 0 413 c0 403 -1 414 -21 440 -28 35 -80 36 -114 1z"/>
<path d="M68974 58520 c-54 -21 -54 -22 -54 -466 0 -401 1 -412 21 -438 28
-35 80 -36 114 -1 l25 24 0 415 0 415 -22 25 c-27 29 -55 38 -84 26z"/>
<path d="M68949 57251 l-29 -29 0 -417 0 -416 25 -24 c15 -16 36 -25 55 -25
19 0 40 9 55 25 l25 24 0 416 0 417 -29 29 c-16 16 -39 29 -51 29 -12 0 -35
-13 -51 -29z"/>
<path d="M68946 56004 l-26 -27 0 -408 c0 -278 4 -416 11 -432 15 -34 50 -51
88 -42 62 13 61 7 61 466 l0 416 -26 27 c-16 15 -38 26 -54 26 -16 0 -38 -11
-54 -26z"/>
<path d="M68945 54755 l-25 -24 0 -416 0 -417 29 -29 c36 -36 60 -37 100 -3
l31 26 0 419 0 420 -25 24 c-15 16 -36 25 -55 25 -19 0 -40 -9 -55 -25z"/>
<path d="M68945 53505 l-25 -24 0 -415 0 -415 23 -26 c31 -37 82 -37 114 -1
l23 27 0 413 c0 403 -1 414 -21 440 -28 35 -80 36 -114 1z"/>
<path d="M68974 52280 c-54 -21 -54 -22 -54 -466 0 -401 1 -412 21 -438 28
-35 80 -36 114 -1 l25 24 0 415 0 415 -22 25 c-27 29 -55 38 -84 26z"/>
<path d="M68949 51011 l-29 -29 0 -417 0 -416 25 -24 c15 -16 36 -25 55 -25
19 0 40 9 55 25 l25 24 0 416 0 417 -29 29 c-16 16 -39 29 -51 29 -12 0 -35
-13 -51 -29z"/>
<path d="M68946 49764 l-26 -27 0 -408 c0 -278 4 -416 11 -432 15 -34 50 -51
88 -42 62 13 61 7 61 466 l0 416 -26 27 c-16 15 -38 26 -54 26 -16 0 -38 -11
-54 -26z"/>
<path d="M68945 48515 l-25 -24 0 -416 0 -417 29 -29 c36 -36 60 -37 100 -3
l31 26 0 419 0 420 -25 24 c-15 16 -36 25 -55 25 -19 0 -40 -9 -55 -25z"/>
<path d="M68941 47264 c-20 -26 -21 -37 -21 -440 l0 -413 23 -26 c31 -37 82
-37 114 -1 l23 27 0 413 c0 403 -1 414 -21 440 -16 20 -29 26 -59 26 -30 0
-43 -6 -59 -26z"/>
<path d="M68974 46040 c-54 -21 -54 -22 -54 -466 0 -401 1 -412 21 -438 28
-35 80 -36 114 -1 l25 24 0 415 0 415 -22 25 c-27 29 -55 38 -84 26z"/>
<path d="M68949 44771 l-29 -29 0 -417 0 -416 25 -24 c15 -16 36 -25 55 -25
19 0 40 9 55 25 l25 24 0 416 0 417 -29 29 c-16 16 -39 29 -51 29 -12 0 -35
-13 -51 -29z"/>
<path d="M4050 44233 c-687 -67 -1269 -562 -1436 -1220 -58 -230 -55 248 -51
-6713 l3 -6385 21 -98 c82 -366 233 -643 485 -882 262 -250 564 -393 927 -440
103 -13 2884 -15 24421 -12 l24305 3 98 21 c54 12 136 34 183 48 532 162 963
615 1100 1152 58 230 55 -248 51 6713 l-3 6385 -21 98 c-82 366 -233 643 -485
882 -261 249 -563 393 -925 440 -101 13 -2900 15 -24376 13 -13344 0 -24278
-3 -24297 -5z m22880 -6922 c134 -45 214 -93 295 -175 106 -107 163 -229 179
-384 l5 -52 -176 2 -176 3 -13 61 c-25 125 -91 210 -199 261 -56 26 -69 28
-185 28 -119 0 -128 -1 -190 -31 -107 -51 -164 -124 -176 -227 -14 -116 53
-217 192 -289 38 -19 146 -60 239 -91 285 -93 412 -161 528 -287 108 -116 157
-237 157 -385 0 -279 -191 -488 -511 -562 -52 -11 -118 -16 -224 -16 -129 0
-164 4 -247 26 -153 40 -266 104 -368 206 -119 120 -165 214 -184 379 l-7 52
178 0 178 0 13 -67 c38 -197 195 -312 429 -313 182 0 320 70 370 189 26 60 21
160 -11 224 -53 109 -144 164 -424 256 -266 88 -411 167 -520 286 -102 112
-142 213 -142 360 1 156 45 259 160 375 148 150 325 212 590 206 133 -2 153
-5 240 -35z m3365 24 c40 -9 105 -29 144 -45 218 -89 353 -279 396 -557 l7
-43 -175 0 -174 0 -13 61 c-29 135 -97 230 -199 278 -49 23 -69 26 -161 26
-97 0 -110 -2 -163 -30 -148 -74 -240 -249 -267 -505 -12 -122 -13 -408 0
-530 27 -255 127 -434 283 -506 57 -27 71 -29 177 -29 133 0 228 24 298 75
l42 30 0 215 0 215 -192 2 -193 3 -3 138 -3 137 371 0 370 0 0 -415 0 -414
-69 -60 c-84 -72 -169 -120 -281 -159 -130 -45 -209 -57 -370 -56 -137 0 -150
2 -239 33 -269 92 -431 283 -519 610 -24 91 -25 113 -30 398 -5 402 14 527
117 731 105 209 280 353 481 396 88 19 273 20 365 1z m-2160 -811 c150 -545
222 -791 227 -778 4 11 100 354 213 764 113 410 210 760 216 778 l11 32 190 0
190 0 -5 -22 c-5 -20 -514 -1677 -613 -1995 l-35 -113 -172 0 -173 0 -323
1053 c-178 578 -326 1058 -328 1065 -4 9 38 12 189 12 l195 0 218 -796z"/>
<path d="M85330 44233 c-687 -67 -1269 -562 -1436 -1220 -58 -230 -55 248 -51
-6713 l3 -6385 21 -98 c82 -366 233 -643 485 -882 262 -250 564 -393 927 -440
103 -13 2884 -15 24421 -12 l24305 3 98 21 c54 12 136 34 183 48 532 162 963
615 1100 1152 58 230 55 -248 51 6713 l-3 6385 -21 98 c-82 366 -233 643 -485
882 -261 249 -563 393 -925 440 -101 13 -2900 15 -24376 13 -13344 0 -24278
-3 -24297 -5z m26245 -6898 c40 -9 105 -29 144 -45 218 -89 353 -279 396 -557
l7 -43 -175 0 -174 0 -13 61 c-29 135 -97 230 -199 278 -49 23 -69 26 -161 26
-97 0 -110 -2 -163 -30 -148 -74 -240 -249 -267 -505 -12 -122 -13 -408 0
-530 27 -255 127 -434 283 -506 57 -27 71 -29 177 -29 133 0 228 24 298 75
l42 30 0 215 0 215 -192 2 -193 3 -3 138 -3 137 371 0 370 0 0 -415 0 -414
-69 -60 c-84 -72 -169 -120 -281 -159 -130 -45 -209 -57 -370 -56 -137 0 -150
2 -239 33 -269 92 -431 283 -519 610 -24 91 -25 113 -30 398 -5 402 14 527
117 731 105 209 280 353 481 396 88 19 273 20 365 1z m-3366 -43 c135 -41 218
-89 307 -177 129 -128 184 -264 184 -460 0 -180 -57 -324 -174 -439 -85 -84
-156 -128 -268 -167 -112 -38 -215 -49 -455 -49 l-203 0 0 -405 0 -405 -175 0
-175 0 0 1066 0 1065 443 -3 c424 -4 445 -5 516 -26z m1425 -701 l341 -724 3
726 2 727 175 0 175 0 0 -1065 0 -1065 -176 2 -176 3 -342 724 -341 723 -3
-726 -2 -726 -180 0 -180 0 0 1065 0 1065 182 -2 181 -3 341 -724z"/>
<path d="M107608 37034 c-5 -4 -8 -174 -8 -377 l0 -369 233 4 c254 5 280 10
367 69 94 64 142 162 143 289 1 138 -52 251 -147 317 -81 56 -127 65 -366 70
-118 3 -218 2 -222 -3z"/>
<path d="M68946 43524 l-26 -27 0 -408 c0 -278 4 -416 11 -432 15 -34 50 -51
88 -42 62 13 61 7 61 466 l0 416 -26 27 c-16 15 -38 26 -54 26 -16 0 -38 -11
-54 -26z"/>
<path d="M68945 42275 l-25 -24 0 -416 0 -417 29 -29 c36 -36 60 -37 100 -3
l31 26 0 419 0 420 -25 24 c-15 16 -36 25 -55 25 -19 0 -40 -9 -55 -25z"/>
<path d="M68945 41025 l-25 -24 0 -415 0 -415 23 -26 c31 -37 82 -37 114 -1
l23 27 0 413 c0 403 -1 414 -21 440 -28 35 -80 36 -114 1z"/>
<path d="M68974 39800 c-54 -21 -54 -22 -54 -466 0 -401 1 -412 21 -438 28
-35 80 -36 114 -1 l25 24 0 415 0 415 -22 25 c-27 29 -55 38 -84 26z"/>
<path d="M68949 38531 l-29 -29 0 -417 0 -416 25 -24 c15 -16 36 -25 55 -25
19 0 40 9 55 25 l25 24 0 416 0 417 -29 29 c-16 16 -39 29 -51 29 -12 0 -35
-13 -51 -29z"/>
<path d="M68946 37284 l-26 -27 0 -241 c0 -241 0 -241 -30 -324 -31 -90 -29
-120 10 -144 17 -11 20 -23 20 -74 0 -80 24 -114 79 -114 40 0 63 17 78 58 9
23 9 23 58 -16 57 -45 95 -66 174 -95 50 -19 83 -21 328 -25 l273 -4 30 30
c38 38 38 66 1 103 l-29 29 -247 0 c-222 0 -252 2 -307 21 -96 32 -176 96
-226 180 -43 72 -52 138 -52 385 l0 231 -26 27 c-16 15 -38 26 -54 26 -16 0
-38 -11 -54 -26z"/>
<path d="M54883 36752 c-28 -15 -175 -99 -328 -187 -285 -165 -304 -180 -286
-227 11 -27 633 -390 669 -390 12 0 32 8 42 17 19 17 20 33 20 395 0 347 -1
378 -17 392 -32 27 -50 27 -100 0z"/>
<path d="M83050 36772 c-8 -2 -23 -11 -32 -20 -17 -14 -18 -45 -18 -387 0
-345 1 -374 18 -395 10 -12 29 -22 43 -22 37 0 659 362 670 390 18 48 1 61
-321 247 -337 194 -338 194 -360 187z"/>
<path d="M68675 36472 c-59 -26 -66 -27 -327 -32 -259 -5 -268 -6 -289 -27
-32 -31 -30 -80 5 -110 27 -23 30 -23 270 -23 207 0 254 3 319 19 139 36 192
81 168 142 -21 57 -65 66 -146 31z"/>
<path d="M55046 36419 c-20 -16 -26 -29 -26 -59 0 -30 6 -43 26 -59 26 -21 37
-21 450 -21 293 0 431 3 448 11 29 14 51 59 41 89 -4 11 -16 30 -28 40 -20 19
-37 20 -453 20 -421 0 -432 0 -458 -21z"/>
<path d="M56345 36415 c-33 -32 -33 -78 0 -111 l25 -25 441 3 441 3 19 24 c26
32 24 77 -6 106 l-24 25 -436 0 -436 0 -24 -25z"/>
<path d="M57645 36415 c-16 -15 -25 -36 -25 -55 0 -19 9 -40 25 -55 l24 -25
436 0 436 0 24 25 c16 15 25 36 25 55 0 19 -9 40 -25 55 l-24 25 -436 0 -436
0 -24 -25z"/>
<path d="M58959 36427 c-44 -34 -47 -89 -7 -127 21 -19 34 -20 454 -20 421 0
432 0 458 21 20 16 26 29 26 59 0 30 -6 43 -26 59 -26 21 -37 21 -458 21 -323
-1 -435 -4 -447 -13z"/>
<path d="M60249 36411 c-16 -16 -29 -39 -29 -51 0 -12 13 -35 29 -51 l29 -29
431 0 430 0 27 23 c20 17 27 33 27 57 0 24 -7 40 -27 57 l-27 23 -430 0 -431
0 -29 -29z"/>
<path d="M61556 36419 c-20 -16 -26 -29 -26 -59 0 -30 6 -43 26 -59 26 -21 37
-21 456 -21 l430 0 29 29 c36 36 37 60 3 100 l-26 31 -433 0 c-422 0 -433 0
-459 -21z"/>
<path d="M62856 36419 c-35 -28 -36 -80 -1 -115 l25 -25 441 3 441 3 19 24
c27 33 24 73 -7 105 l-27 26 -432 0 c-422 0 -433 0 -459 -21z"/>
<path d="M64155 36415 c-16 -15 -25 -36 -25 -55 0 -19 9 -40 25 -55 l24 -25
436 0 436 0 24 25 c16 15 25 36 25 55 0 19 -9 40 -25 55 l-24 25 -436 0 -436
0 -24 -25z"/>
<path d="M65456 36415 c-34 -32 -35 -77 -1 -110 l24 -25 436 0 436 0 24 25
c16 15 25 36 25 55 0 19 -9 40 -25 55 l-24 25 -434 0 -434 0 -27 -25z"/>
<path d="M66769 36427 c-44 -34 -47 -89 -7 -127 21 -19 34 -20 454 -20 421 0
432 0 458 21 20 16 26 29 26 59 0 30 -6 43 -26 59 -26 21 -37 21 -458 21 -323
-1 -435 -4 -447 -13z"/>
<path d="M70326 36419 c-20 -16 -26 -29 -26 -59 0 -30 6 -43 26 -59 26 -21 37
-21 450 -21 232 0 434 4 447 9 28 11 52 61 42 91 -4 11 -16 30 -28 40 -20 19
-37 20 -453 20 -421 0 -432 0 -458 -21z"/>
<path d="M71625 36415 c-33 -32 -33 -78 0 -111 l25 -25 441 3 441 3 19 24 c26
32 24 77 -6 106 l-24 25 -436 0 -436 0 -24 -25z"/>
<path d="M72925 36415 c-16 -15 -25 -36 -25 -55 0 -19 9 -40 25 -55 l24 -25
436 0 436 0 24 25 c16 15 25 36 25 55 0 19 -9 40 -25 55 l-24 25 -436 0 -436
0 -24 -25z"/>
<path d="M74239 36427 c-44 -34 -47 -89 -7 -127 21 -19 34 -20 454 -20 421 0
432 0 458 21 20 16 26 29 26 59 0 30 -6 43 -26 59 -26 21 -37 21 -458 21 -323
-1 -435 -4 -447 -13z"/>
<path d="M75529 36411 c-16 -16 -29 -39 -29 -51 0 -12 13 -35 29 -51 l29 -29
431 0 430 0 27 23 c20 17 27 33 27 57 0 24 -7 40 -27 57 l-27 23 -430 0 -431
0 -29 -29z"/>
<path d="M76836 36419 c-20 -16 -26 -29 -26 -59 0 -30 6 -43 26 -59 26 -21 37
-21 456 -21 l430 0 29 29 c36 36 37 60 3 100 l-26 31 -433 0 c-422 0 -433 0
-459 -21z"/>
<path d="M78136 36419 c-35 -28 -36 -80 -1 -115 l25 -25 440 3 441 3 19 25
c27 35 25 72 -6 104 l-27 26 -432 0 c-422 0 -433 0 -459 -21z"/>
<path d="M79435 36415 c-16 -15 -25 -36 -25 -55 0 -19 9 -40 25 -55 l24 -25
436 0 436 0 24 25 c16 15 25 36 25 55 0 19 -9 40 -25 55 l-24 25 -436 0 -436
0 -24 -25z"/>
<path d="M80736 36415 c-34 -32 -35 -77 -1 -110 l24 -25 436 0 436 0 24 25
c16 15 25 36 25 55 0 19 -9 40 -25 55 l-24 25 -434 0 -434 0 -27 -25z"/>
<path d="M82053 36428 c-27 -13 -47 -59 -38 -88 4 -11 16 -30 28 -40 20 -19
37 -20 453 -20 421 0 432 0 458 21 20 16 26 29 26 59 0 30 -6 43 -26 59 -26
21 -36 21 -453 20 -277 0 -434 -4 -448 -11z"/>
<path d="M68965 36018 c-45 -26 -44 -23 -45 -476 l0 -433 25 -24 c32 -33 78
-33 110 0 l25 24 0 433 c-1 456 0 452 -47 476 -27 15 -42 15 -68 0z"/>
<path d="M68945 34705 l-25 -24 0 -430 0 -430 23 -27 c17 -20 33 -27 57 -27
24 0 40 7 57 27 l23 27 0 430 0 430 -25 24 c-15 16 -36 25 -55 25 -19 0 -40
-9 -55 -25z"/>
<path d="M68949 33411 l-29 -29 0 -432 0 -431 25 -24 c32 -33 78 -33 110 0
l25 24 0 431 0 432 -29 29 c-16 16 -39 29 -51 29 -12 0 -35 -13 -51 -29z"/>
<path d="M68945 32115 l-25 -24 0 -425 c0 -295 3 -433 11 -450 14 -29 59 -51
89 -41 11 4 30 16 40 28 19 20 20 37 20 454 l0 434 -25 24 c-15 16 -36 25 -55
25 -19 0 -40 -9 -55 -25z"/>
<path d="M68941 30814 c-21 -26 -21 -37 -21 -454 0 -417 0 -428 21 -454 16
-20 29 -26 59 -26 30 0 43 6 59 26 21 26 21 37 21 454 0 417 0 428 -21 454
-16 20 -29 26 -59 26 -30 0 -43 -6 -59 -26z"/>
<path d="M68965 29538 c-45 -26 -44 -23 -45 -476 l0 -433 25 -24 c32 -33 78
-33 110 0 l25 24 0 433 c-1 456 0 452 -47 476 -27 15 -42 15 -68 0z"/>
<path d="M68945 28225 l-25 -24 0 -430 0 -430 23 -27 c17 -20 33 -27 57 -27
24 0 40 7 57 27 l23 27 0 430 0 430 -25 24 c-15 16 -36 25 -55 25 -19 0 -40
-9 -55 -25z"/>
<path d="M68949 26931 l-29 -29 0 -432 0 -431 25 -24 c32 -33 78 -33 110 0
l25 24 0 431 0 432 -29 29 c-16 16 -39 29 -51 29 -12 0 -35 -13 -51 -29z"/>
<path d="M68945 25635 l-25 -24 0 -425 c0 -295 3 -433 11 -450 14 -29 59 -51
89 -41 11 4 30 16 40 28 19 20 20 37 20 454 l0 434 -25 24 c-15 16 -36 25 -55
25 -19 0 -40 -9 -55 -25z"/>
<path d="M68941 24334 c-21 -26 -21 -37 -21 -454 0 -417 0 -428 21 -454 16
-20 29 -26 59 -26 30 0 43 6 59 26 21 26 21 37 21 454 0 417 0 428 -21 454
-16 20 -29 26 -59 26 -30 0 -43 -6 -59 -26z"/>
<path d="M68965 23058 c-45 -26 -44 -23 -45 -476 l0 -433 25 -24 c32 -33 78
-33 110 0 l25 24 0 433 c-1 456 0 452 -47 476 -27 15 -42 15 -68 0z"/>
<path d="M68945 21745 l-25 -24 0 -430 0 -430 23 -27 c17 -20 33 -27 57 -27
24 0 40 7 57 27 l23 27 0 430 0 430 -25 24 c-15 16 -36 25 -55 25 -19 0 -40
-9 -55 -25z"/>
<path d="M68949 20451 l-29 -29 0 -432 0 -431 25 -24 c15 -16 36 -25 55 -25
19 0 40 9 55 25 l25 24 0 431 0 432 -29 29 c-16 16 -39 29 -51 29 -12 0 -35
-13 -51 -29z"/>
<path d="M68945 19155 l-25 -24 0 -425 c0 -295 3 -433 11 -450 14 -29 59 -51
89 -41 11 4 30 16 40 28 19 20 20 37 20 454 l0 434 -25 24 c-15 16 -36 25 -55
25 -19 0 -40 -9 -55 -25z"/>
<path d="M4050 18313 c-687 -67 -1269 -562 -1436 -1220 -58 -230 -55 248 -51
-6713 l3 -6385 21 -98 c82 -366 233 -643 485 -882 262 -250 564 -393 927 -440
103 -13 2884 -15 24421 -12 l24305 3 98 21 c54 12 136 34 183 48 532 162 963
615 1100 1152 58 230 55 -248 51 6713 l-3 6385 -21 98 c-82 366 -233 643 -485
882 -261 249 -563 393 -925 440 -101 13 -2900 15 -24376 13 -13344 0 -24278
-3 -24297 -5z m21278 -7575 c41 -365 77 -671 80 -681 4 -10 54 280 111 645 57
365 106 671 109 681 4 15 19 17 138 17 130 0 134 -1 139 -22 2 -13 52 -318
110 -678 58 -360 107 -659 109 -665 4 -16 10 31 87 718 l73 647 163 0 c163 0
163 0 163 -22 -1 -13 -63 -491 -139 -1063 l-137 -1040 -167 -3 c-166 -2 -167
-2 -172 20 -3 13 -52 311 -110 663 -58 352 -108 653 -112 668 -6 20 -39 -161
-117 -640 -59 -367 -110 -678 -113 -690 -5 -23 -7 -23 -172 -23 l-166 0 -138
1058 c-76 581 -138 1060 -137 1065 0 4 73 7 163 7 l162 0 73 -662z m2882 517
l0 -145 -515 0 -515 0 0 -300 0 -300 445 0 445 0 0 -140 0 -140 -442 -2 -443
-3 -3 -332 -2 -333 515 0 515 0 0 -145 0 -145 -690 0 -690 0 0 1065 0 1065
690 0 690 0 0 -145z m1295 117 c132 -37 238 -93 308 -164 105 -106 147 -212
147 -369 0 -190 -91 -345 -252 -428 -47 -24 -56 -32 -42 -37 62 -20 151 -72
197 -114 97 -89 149 -219 149 -375 1 -113 -13 -177 -59 -274 -69 -146 -219
-259 -418 -313 -76 -21 -104 -22 -537 -26 l-458 -3 0 1066 0 1066 443 -3 c419
-4 446 -5 522 -26z m1687 14 c228 -44 403 -166 488 -341 54 -108 70 -179 70
-302 0 -130 -12 -188 -62 -293 -78 -164 -237 -287 -443 -341 -68 -18 -118 -22
-332 -26 l-253 -5 0 -404 0 -404 -180 0 -180 0 0 1065 0 1065 409 0 c311 0
427 -3 483 -14z"/>
<path d="M28900 10804 l0 -306 213 4 c183 4 221 8 278 26 85 28 147 76 184
143 27 49 30 62 29 139 -1 122 -38 192 -129 245 -71 42 -159 55 -377 55 l-198
0 0 -306z"/>
<path d="M28900 9896 l0 -336 215 0 c228 0 291 8 367 46 70 35 114 78 145 142
25 50 28 68 28 152 -1 75 -5 105 -22 141 -31 69 -85 122 -155 155 l-63 29
-257 3 -258 3 0 -335z"/>
<path d="M30660 10746 l0 -376 203 0 c271 0 350 21 443 116 62 64 88 137 88
249 0 141 -51 248 -150 313 -83 55 -127 64 -366 69 l-218 6 0 -377z"/>
<path d="M85330 18313 c-687 -67 -1269 -562 -1436 -1220 -58 -230 -55 248 -51
-6713 l3 -6385 21 -98 c82 -366 233 -643 485 -882 262 -250 564 -393 927 -440
103 -13 2884 -15 24421 -12 l24305 3 98 21 c54 12 136 34 183 48 532 162 963
615 1100 1152 58 230 55 -248 51 6713 l-3 6385 -21 98 c-82 366 -233 643 -485
882 -261 249 -563 393 -925 440 -101 13 -2900 15 -24376 13 -13344 0 -24278
-3 -24297 -5z m22855 -6941 c131 -36 253 -102 318 -171 104 -112 142 -224 135
-395 -3 -91 -7 -108 -39 -177 -43 -89 -113 -164 -199 -211 -58 -32 -74 -48
-47 -48 30 0 137 -61 188 -108 63 -57 118 -154 140 -242 18 -74 16 -220 -5
-299 -40 -154 -150 -288 -297 -360 -168 -83 -183 -85 -701 -89 l-458 -3 0
1066 0 1066 443 -3 c418 -4 446 -5 522 -26z m1320 -417 c71 -245 131 -445 134
-445 3 0 69 199 147 443 l141 442 221 3 222 2 0 -1065 0 -1065 -167 0 -166 0
7 783 c3 430 9 805 12 832 4 28 4 48 1 45 -3 -3 -78 -228 -165 -500 l-160
-495 -94 -3 -94 -3 -144 480 c-80 263 -146 478 -148 476 -2 -1 2 -202 7 -446
6 -244 11 -607 11 -806 l0 -363 -165 0 -165 0 0 1065 0 1065 218 0 219 0 128
-445z m2160 421 c203 -59 358 -179 433 -337 52 -110 66 -172 66 -299 1 -116
-13 -184 -54 -275 -60 -132 -160 -231 -305 -300 -142 -68 -202 -78 -487 -83
l-248 -4 0 -404 0 -404 -175 0 -175 0 0 1066 0 1065 443 -4 c383 -3 450 -6
502 -21z"/>
<path d="M107580 10805 l0 -305 178 0 c97 0 202 4 232 9 182 30 285 126 298
276 9 117 -40 216 -133 270 -71 42 -158 55 -377 55 l-198 0 0 -305z"/>
<path d="M107580 9895 l0 -335 215 0 c228 0 291 8 367 46 67 34 109 74 144
136 27 49 29 61 29 153 0 110 -20 172 -73 229 -85 90 -152 106 -449 106 l-233
0 0 -335z"/>
<path d="M111070 10746 l0 -376 200 0 c277 0 349 19 447 116 43 42 55 64 74
124 51 170 -9 362 -141 445 -75 47 -131 57 -362 62 l-218 6 0 -377z"/>
<path d="M68941 17854 c-21 -26 -21 -37 -21 -454 0 -417 0 -428 21 -454 16
-20 29 -26 59 -26 30 0 43 6 59 26 21 26 21 37 21 454 0 417 0 428 -21 454
-16 20 -29 26 -59 26 -30 0 -43 -6 -59 -26z"/>
<path d="M68965 16578 c-45 -26 -44 -23 -45 -476 l0 -433 25 -24 c15 -16 36
-25 55 -25 19 0 40 9 55 25 l25 24 0 433 c-1 456 0 452 -47 476 -27 15 -42 15
-68 0z"/>
<path d="M68945 15265 l-25 -24 0 -430 0 -430 23 -27 c17 -20 33 -27 57 -27
24 0 40 7 57 27 l23 27 0 430 0 430 -25 24 c-15 16 -36 25 -55 25 -19 0 -40
-9 -55 -25z"/>
<path d="M68949 13971 l-29 -29 0 -432 0 -431 25 -24 c15 -16 36 -25 55 -25
19 0 40 9 55 25 l25 24 0 431 0 432 -29 29 c-16 16 -39 29 -51 29 -12 0 -35
-13 -51 -29z"/>
<path d="M68945 12675 l-25 -24 0 -425 c0 -295 3 -433 11 -450 14 -29 59 -51
89 -41 11 4 30 16 40 28 19 20 20 37 20 454 l0 434 -25 24 c-15 16 -36 25 -55
25 -19 0 -40 -9 -55 -25z"/>
<path d="M68941 11374 c-20 -25 -21 -39 -21 -271 0 -220 -2 -250 -21 -305 -32
-96 -96 -176 -180 -226 -72 -43 -137 -52 -391 -52 -234 0 -237 0 -264 -23 -20
-17 -27 -33 -27 -57 0 -24 7 -40 27 -57 27 -23 30 -23 270 -23 273 0 344 11
458 72 81 43 177 141 222 228 56 107 66 169 66 446 0 229 -1 243 -21 268 -16
20 -29 26 -59 26 -30 0 -43 -6 -59 -26z"/>
<path d="M54883 10832 c-28 -15 -175 -99 -328 -187 -285 -165 -304 -180 -286
-227 11 -27 633 -390 669 -390 12 0 32 8 42 17 19 17 20 33 20 395 0 347 -1
378 -17 392 -32 27 -50 27 -100 0z"/>
<path d="M83050 10852 c-8 -2 -23 -11 -32 -20 -17 -14 -18 -45 -18 -387 0
-345 1 -374 18 -395 10 -12 29 -22 43 -22 37 0 659 362 670 390 18 48 1 61
-321 247 -337 194 -338 194 -360 187z"/>
<path d="M55046 10499 c-20 -16 -26 -29 -26 -59 0 -30 6 -43 26 -59 26 -21 37
-21 450 -21 293 0 431 3 448 11 29 14 51 59 41 89 -4 11 -16 30 -28 40 -20 19
-37 20 -453 20 -421 0 -432 0 -458 -21z"/>
<path d="M56345 10495 c-33 -32 -33 -78 0 -111 l25 -25 441 3 441 3 19 24 c26
32 24 77 -6 106 l-24 25 -436 0 -436 0 -24 -25z"/>
<path d="M57645 10495 c-16 -15 -25 -36 -25 -55 0 -19 9 -40 25 -55 l24 -25
436 0 436 0 24 25 c16 15 25 36 25 55 0 19 -9 40 -25 55 l-24 25 -436 0 -436
0 -24 -25z"/>
<path d="M58959 10507 c-44 -34 -47 -89 -7 -127 21 -19 34 -20 454 -20 421 0
432 0 458 21 20 16 26 29 26 59 0 30 -6 43 -26 59 -26 21 -37 21 -458 21 -323
-1 -435 -4 -447 -13z"/>
<path d="M60249 10491 c-16 -16 -29 -39 -29 -51 0 -12 13 -35 29 -51 l29 -29
431 0 430 0 27 23 c20 17 27 33 27 57 0 24 -7 40 -27 57 l-27 23 -430 0 -431
0 -29 -29z"/>
<path d="M61556 10499 c-20 -16 -26 -29 -26 -59 0 -30 6 -43 26 -59 26 -21 37
-21 456 -21 l430 0 29 29 c36 36 37 60 3 100 l-26 31 -433 0 c-422 0 -433 0
-459 -21z"/>
<path d="M62856 10499 c-35 -28 -36 -80 -1 -115 l25 -25 441 3 441 3 19 24
c27 33 24 73 -7 105 l-27 26 -432 0 c-422 0 -433 0 -459 -21z"/>
<path d="M64155 10495 c-16 -15 -25 -36 -25 -55 0 -19 9 -40 25 -55 l24 -25
436 0 436 0 24 25 c16 15 25 36 25 55 0 19 -9 40 -25 55 l-24 25 -436 0 -436
0 -24 -25z"/>
<path d="M65455 10495 c-16 -15 -25 -36 -25 -55 0 -19 9 -40 25 -55 l24 -25
436 0 436 0 24 25 c16 15 25 36 25 55 0 19 -9 40 -25 55 l-24 25 -436 0 -436
0 -24 -25z"/>
<path d="M66773 10508 c-27 -13 -47 -59 -38 -88 4 -11 16 -30 28 -40 20 -19
37 -20 453 -20 421 0 432 0 458 21 20 16 26 29 26 59 0 30 -6 43 -26 59 -26
21 -36 21 -453 20 -277 0 -434 -4 -448 -11z"/>
<path d="M69266 10494 c-28 -29 -32 -53 -14 -87 23 -45 32 -46 276 -47 l233 0
24 25 c16 15 25 36 25 55 0 19 -9 40 -25 55 l-24 25 -234 0 -234 0 -27 -26z"/>
<path d="M70176 10499 c-20 -16 -26 -29 -26 -59 0 -30 6 -43 26 -59 26 -21 37
-21 461 -21 l435 0 29 29 c36 36 37 60 3 100 l-26 31 -438 0 c-427 0 -438 0
-464 -21z"/>
<path d="M71499 10507 c-44 -34 -47 -89 -7 -127 21 -19 34 -20 459 -20 426 0
437 0 463 21 20 16 26 29 26 59 0 30 -6 43 -26 59 -26 21 -37 21 -463 21 -327
-1 -440 -4 -452 -13z"/>
<path d="M72805 10495 c-33 -32 -33 -78 0 -111 l25 -25 446 3 446 3 19 24 c26
32 24 77 -6 106 l-24 25 -441 0 -441 0 -24 -25z"/>
<path d="M74125 10498 c-37 -32 -37 -83 -1 -115 l27 -23 435 0 436 0 29 29
c16 16 29 39 29 51 0 12 -13 35 -29 51 l-29 29 -436 0 -435 0 -26 -22z"/>
<path d="M75449 10507 c-44 -34 -47 -89 -7 -127 21 -19 34 -20 460 -20 l439 0
24 25 c16 15 25 36 25 55 0 19 -9 40 -25 55 l-24 25 -438 0 c-329 -1 -442 -4
-454 -13z"/>
<path d="M76755 10495 c-33 -32 -33 -78 0 -111 l25 -25 446 3 446 3 19 24 c27
33 24 73 -7 105 l-27 26 -439 0 -439 0 -24 -25z"/>
<path d="M78074 10497 c-20 -17 -27 -33 -27 -57 0 -24 7 -40 27 -57 l27 -23
434 0 434 0 27 23 c20 17 27 33 27 57 0 24 -7 40 -27 57 l-27 23 -434 0 -434
0 -27 -23z"/>
<path d="M79386 10495 c-34 -32 -35 -77 -1 -110 l24 -25 441 0 441 0 24 25
c16 15 25 36 25 55 0 19 -9 40 -25 55 l-24 25 -439 0 -439 0 -27 -25z"/>
<path d="M80706 10499 c-35 -28 -36 -80 -1 -114 l24 -25 430 0 c298 0 438 3
455 11 29 14 51 59 41 89 -4 11 -16 30 -28 40 -20 19 -37 20 -458 20 -426 0
-437 0 -463 -21z"/>
<path d="M82019 10491 c-16 -16 -29 -39 -29 -51 0 -12 13 -35 29 -51 l29 -29
435 0 c424 0 435 0 461 21 20 16 26 29 26 59 0 30 -6 43 -26 59 -26 21 -37 21
-461 21 l-435 0 -29 -29z"/>
</g>
</svg>
