<?xml version="1.0" standalone="no"?>
<!DOCTYPE svg PUBLIC "-//W3C//DTD SVG 20010904//EN"
 "http://www.w3.org/TR/2001/REC-SVG-20010904/DTD/svg10.dtd">
<svg version="1.0" xmlns="http://www.w3.org/2000/svg"
 width="13800.000000pt" height="7272.000000pt" viewBox="0 0 13800.000000 7272.000000"
 preserveAspectRatio="xMidYMid meet">

<g transform="translate(0.000000,7272.000000) scale(0.100000,-0.100000)"
fill="#000000" stroke="none">
<path d="M4050 70153 c-687 -67 -1269 -562 -1436 -1220 -58 -230 -55 248 -51
-6713 l3 -6385 21 -98 c82 -366 233 -643 485 -882 262 -250 564 -393 927 -440
103 -13 2884 -15 24421 -12 l24305 3 98 21 c54 12 136 34 183 48 532 162 963
615 1100 1152 58 230 55 -248 51 6713 l-3 6385 -21 98 c-82 366 -233 643 -485
882 -261 249 -563 393 -925 440 -101 13 -2900 15 -24376 13 -13344 0 -24278
-3 -24297 -5z m22445 -7363 c71 -248 132 -445 136 -438 3 7 69 210 145 450
l139 438 223 0 222 0 0 -1065 0 -1065 -172 0 -171 0 6 553 c4 303 9 674 12
822 l5 270 -94 -285 c-52 -157 -125 -378 -161 -492 l-67 -208 -94 0 -93 0 -20
68 c-219 729 -266 879 -269 849 -2 -17 1 -255 7 -527 6 -272 11 -620 11 -772
l0 -278 -170 0 -170 0 0 1065 0 1065 223 0 222 0 130 -450z m2097 436 c97 -19
219 -66 288 -113 122 -82 222 -224 255 -364 20 -85 20 -264 -1 -342 -57 -222
-238 -392 -489 -458 -68 -18 -118 -22 -332 -26 l-253 -5 0 -404 0 -404 -180 0
-180 0 0 1065 0 1065 409 0 c312 0 427 -3 483 -14z m1978 -671 l0 -685 135 0
135 0 0 -140 0 -140 -135 0 -135 0 0 -240 0 -240 -175 0 -175 0 0 240 0 240
-459 0 -460 0 -6 43 c-4 24 -5 75 -3 113 l3 69 455 712 455 712 183 1 182 0 0
-685z"/>
<path d="M28060 62585 l0 -375 200 0 c222 0 279 8 363 53 95 50 149 128 169
245 29 170 -47 334 -185 402 -79 38 -163 49 -379 50 l-168 0 0 -375z"/>
<path d="M30192 62722 c-12 -23 -140 -222 -282 -444 l-260 -403 282 -3 c154
-1 283 -1 285 1 2 2 2 203 1 447 l-3 442 -23 -40z"/>
<path d="M85330 70153 c-687 -67 -1269 -562 -1436 -1220 -58 -230 -55 248 -51
-6713 l3 -6385 21 -98 c82 -366 233 -643 485 -882 262 -250 564 -393 927 -440
103 -13 2884 -15 24421 -12 l24305 3 98 21 c54 12 136 34 183 48 532 162 963
615 1100 1152 58 230 55 -248 51 6713 l-3 6385 -21 98 c-82 366 -233 643 -485
882 -261 249 -563 393 -925 440 -101 13 -2900 15 -24376 13 -13344 0 -24278
-3 -24297 -5z m22445 -7363 c71 -248 132 -445 136 -438 3 7 69 210 145 450
l139 438 223 0 222 0 0 -1065 0 -1065 -172 0 -171 0 6 553 c4 303 9 674 12
822 l5 270 -94 -285 c-52 -157 -125 -378 -161 -492 l-67 -208 -94 0 -93 0 -20
68 c-219 729 -266 879 -269 849 -2 -17 1 -255 7 -527 6 -272 11 -620 11 -772
l0 -278 -170 0 -170 0 0 1065 0 1065 223 0 222 0 130 -450z m1537 -47 l3 -496
160 209 c88 115 257 339 375 496 l215 287 218 0 219 1 -29 -37 c-16 -21 -179
-231 -362 -466 -183 -236 -330 -434 -328 -441 3 -8 160 -254 348 -547 188
-294 358 -558 376 -586 l34 -53 -213 0 -213 0 -284 455 c-156 251 -286 457
-290 459 -3 2 -57 -53 -118 -123 l-112 -126 -1 -332 0 -333 -180 0 -180 0 0
1065 0 1065 180 0 180 0 2 -497z m1627 460 c6 -21 104 -377 218 -790 113 -414
209 -753 212 -753 3 0 82 276 175 613 93 336 192 692 219 790 l50 177 192 0
192 0 -327 -1062 -327 -1063 -174 0 -174 0 -315 1025 c-173 564 -320 1042
-327 1063 l-11 37 193 0 194 0 10 -37z"/>
<path d="M54883 62672 c-28 -15 -175 -99 -328 -187 -285 -165 -304 -180 -286
-227 11 -27 633 -390 669 -390 12 0 32 8 42 17 19 17 20 33 20 395 0 347 -1
378 -17 392 -32 27 -50 27 -100 0z"/>
<path d="M83050 62692 c-47 -15 -50 -28 -50 -186 l0 -151 -417 3 c-304 2 -424
-1 -440 -9 -33 -18 -48 -62 -34 -98 7 -15 22 -34 34 -40 16 -8 136 -11 440 -9
l417 3 0 -146 c0 -127 2 -150 18 -169 10 -12 29 -22 43 -22 37 0 659 362 670
390 18 48 1 61 -321 247 -337 194 -338 194 -360 187z"/>
<path d="M55046 62339 c-20 -16 -26 -29 -26 -59 0 -30 6 -43 26 -59 26 -21 37
-21 450 -21 293 0 431 3 448 11 29 14 51 59 41 89 -4 11 -16 30 -28 40 -20 19
-37 20 -453 20 -421 0 -432 0 -458 -21z"/>
<path d="M56345 62335 c-33 -32 -33 -78 0 -111 l25 -25 441 3 441 3 19 24 c26
32 24 77 -6 106 l-24 25 -436 0 -436 0 -24 -25z"/>
<path d="M57645 62335 c-16 -15 -25 -36 -25 -55 0 -19 9 -40 25 -55 l24 -25
436 0 436 0 24 25 c16 15 25 36 25 55 0 19 -9 40 -25 55 l-24 25 -436 0 -436
0 -24 -25z"/>
<path d="M58959 62347 c-44 -34 -47 -89 -7 -127 21 -19 34 -20 454 -20 421 0
432 0 458 21 20 16 26 29 26 59 0 30 -6 43 -26 59 -26 21 -37 21 -458 21 -323
-1 -435 -4 -447 -13z"/>
<path d="M60249 62331 c-16 -16 -29 -39 -29 -51 0 -12 13 -35 29 -51 l29 -29
431 0 430 0 27 23 c20 17 27 33 27 57 0 24 -7 40 -27 57 l-27 23 -430 0 -431
0 -29 -29z"/>
<path d="M61556 62339 c-20 -16 -26 -29 -26 -59 0 -30 6 -43 26 -59 26 -21 37
-21 456 -21 l430 0 29 29 c36 36 37 60 3 100 l-26 31 -433 0 c-422 0 -433 0
-459 -21z"/>
<path d="M62856 62339 c-35 -28 -36 -80 -1 -115 l25 -25 441 3 441 3 19 24
c27 33 24 73 -7 105 l-27 26 -432 0 c-422 0 -433 0 -459 -21z"/>
<path d="M64155 62335 c-16 -15 -25 -36 -25 -55 0 -19 9 -40 25 -55 l24 -25
436 0 436 0 24 25 c16 15 25 36 25 55 0 19 -9 40 -25 55 l-24 25 -436 0 -436
0 -24 -25z"/>
<path d="M65456 62335 c-34 -32 -35 -77 -1 -110 l24 -25 436 0 436 0 24 25
c16 15 25 36 25 55 0 19 -9 40 -25 55 l-24 25 -434 0 -434 0 -27 -25z"/>
<path d="M66769 62347 c-44 -34 -47 -89 -7 -127 21 -19 34 -20 454 -20 421 0
432 0 458 21 20 16 26 29 26 59 0 30 -6 43 -26 59 -26 21 -37 21 -458 21 -323
-1 -435 -4 -447 -13z"/>
<path d="M68064 62337 c-20 -17 -27 -33 -27 -57 0 -24 7 -40 27 -57 27 -23 30
-23 272 -23 221 0 251 -2 306 -21 132 -44 224 -139 262 -268 13 -43 16 -103
16 -282 0 -146 4 -237 11 -252 15 -34 50 -51 88 -42 61 13 63 25 59 317 -4
240 -6 268 -26 322 -55 149 -154 262 -291 330 -91 46 -162 56 -428 56 -239 0
-242 0 -269 -23z"/>
<path d="M68946 62334 c-28 -29 -32 -53 -14 -87 23 -45 33 -46 259 -47 204 0
218 1 243 21 20 16 26 29 26 59 0 30 -6 43 -26 59 -25 20 -39 21 -244 21
l-217 0 -27 -26z"/>
<path d="M69795 62335 c-16 -15 -25 -36 -25 -55 0 -19 9 -40 25 -55 l24 -25
405 0 c223 0 416 4 429 9 28 11 52 61 42 91 -4 11 -16 30 -28 40 -20 19 -37
20 -434 20 l-414 0 -24 -25z"/>
<path d="M71039 62347 c-44 -34 -47 -89 -7 -127 21 -19 34 -20 435 -20 l414 0
24 25 c16 15 25 36 25 55 0 19 -9 40 -25 55 l-24 25 -413 0 c-309 -1 -417 -4
-429 -13z"/>
<path d="M72266 62339 c-20 -16 -26 -29 -26 -59 0 -30 6 -43 26 -59 26 -20 37
-21 434 -21 397 0 408 1 434 21 20 16 26 29 26 59 0 30 -6 43 -26 59 -26 20
-37 21 -434 21 -397 0 -408 -1 -434 -21z"/>
<path d="M73495 62335 c-16 -15 -25 -36 -25 -55 0 -19 9 -40 25 -55 l24 -25
405 0 c223 0 416 4 429 9 28 11 52 61 42 91 -4 11 -16 30 -28 40 -20 19 -37
20 -434 20 l-414 0 -24 -25z"/>
<path d="M74739 62347 c-44 -34 -47 -89 -7 -127 21 -19 34 -20 435 -20 l414 0
24 25 c16 15 25 36 25 55 0 19 -9 40 -25 55 l-24 25 -413 0 c-309 -1 -417 -4
-429 -13z"/>
<path d="M75966 62339 c-20 -16 -26 -29 -26 -59 0 -30 6 -43 26 -59 26 -20 37
-21 434 -21 397 0 408 1 434 21 20 16 26 29 26 59 0 30 -6 43 -26 59 -26 20
-37 21 -434 21 -397 0 -408 -1 -434 -21z"/>
<path d="M77195 62335 c-16 -15 -25 -36 -25 -55 0 -19 9 -40 25 -55 l24 -25
405 0 c223 0 416 4 429 9 28 11 52 61 42 91 -4 11 -16 30 -28 40 -20 19 -37
20 -434 20 l-414 0 -24 -25z"/>
<path d="M78439 62347 c-44 -34 -47 -89 -7 -127 21 -19 34 -20 435 -20 l414 0
24 25 c16 15 25 36 25 55 0 19 -9 40 -25 55 l-24 25 -413 0 c-309 -1 -417 -4
-429 -13z"/>
<path d="M79666 62339 c-20 -16 -26 -29 -26 -59 0 -30 6 -43 26 -59 26 -20 37
-21 434 -21 397 0 408 1 434 21 20 16 26 29 26 59 0 30 -6 43 -26 59 -26 20
-37 21 -434 21 -397 0 -408 -1 -434 -21z"/>
<path d="M80895 62335 c-16 -15 -25 -36 -25 -55 0 -19 9 -40 25 -55 l24 -25
405 0 c223 0 416 4 429 9 28 11 52 61 42 91 -4 11 -16 30 -28 40 -20 19 -37
20 -434 20 l-414 0 -24 -25z"/>
<path d="M68945 60995 l-25 -24 0 -416 0 -417 29 -29 c36 -36 60 -37 100 -3
l31 26 0 419 0 420 -25 24 c-15 16 -36 25 -55 25 -19 0 -40 -9 -55 -25z"/>
<path d="M68945 59745 l-25 -24 0 -415 0 -415 23 -26 c31 -37 82 -37 114 -1
l23 27 0 413 c0 403 -1 414 -21 440 -28 35 -80 36 -114 1z"/>
<path d="M68974 58520 c-54 -21 -54 -22 -54 -466 0 -401 1 -412 21 -438 28
-35 80 -36 114 -1 l25 24 0 415 0 415 -22 25 c-27 29 -55 38 -84 26z"/>
<path d="M68949 57251 l-29 -29 0 -417 0 -416 25 -24 c15 -16 36 -25 55 -25
19 0 40 9 55 25 l25 24 0 416 0 417 -29 29 c-16 16 -39 29 -51 29 -12 0 -35
-13 -51 -29z"/>
<path d="M68946 56004 l-26 -27 0 -408 c0 -278 4 -416 11 -432 15 -34 50 -51
88 -42 62 13 61 7 61 466 l0 416 -26 27 c-16 15 -38 26 -54 26 -16 0 -38 -11
-54 -26z"/>
<path d="M68945 54755 l-25 -24 0 -416 0 -417 29 -29 c36 -36 60 -37 100 -3
l31 26 0 419 0 420 -25 24 c-15 16 -36 25 -55 25 -19 0 -40 -9 -55 -25z"/>
<path d="M68945 53505 l-25 -24 0 -415 0 -415 23 -26 c31 -37 82 -37 114 -1
l23 27 0 413 c0 403 -1 414 -21 440 -28 35 -80 36 -114 1z"/>
<path d="M68974 52280 c-54 -21 -54 -22 -54 -466 0 -401 1 -412 21 -438 28
-35 80 -36 114 -1 l25 24 0 415 0 415 -22 25 c-27 29 -55 38 -84 26z"/>
<path d="M68949 51011 l-29 -29 0 -417 0 -416 25 -24 c15 -16 36 -25 55 -25
19 0 40 9 55 25 l25 24 0 416 0 417 -29 29 c-16 16 -39 29 -51 29 -12 0 -35
-13 -51 -29z"/>
<path d="M68946 49764 l-26 -27 0 -408 c0 -278 4 -416 11 -432 15 -34 50 -51
88 -42 62 13 61 7 61 466 l0 416 -26 27 c-16 15 -38 26 -54 26 -16 0 -38 -11
-54 -26z"/>
<path d="M68945 48515 l-25 -24 0 -416 0 -417 29 -29 c36 -36 60 -37 100 -3
l31 26 0 419 0 420 -25 24 c-15 16 -36 25 -55 25 -19 0 -40 -9 -55 -25z"/>
<path d="M68941 47264 c-20 -26 -21 -37 -21 -440 l0 -413 23 -26 c31 -37 82
-37 114 -1 l23 27 0 413 c0 403 -1 414 -21 440 -16 20 -29 26 -59 26 -30 0
-43 -6 -59 -26z"/>
<path d="M68974 46040 c-54 -21 -54 -22 -54 -466 0 -401 1 -412 21 -438 28
-35 80 -36 114 -1 l25 24 0 415 0 415 -22 25 c-27 29 -55 38 -84 26z"/>
<path d="M68949 44771 l-29 -29 0 -417 0 -416 25 -24 c15 -16 36 -25 55 -25
19 0 40 9 55 25 l25 24 0 416 0 417 -29 29 c-16 16 -39 29 -51 29 -12 0 -35
-13 -51 -29z"/>
<path d="M4050 44233 c-687 -67 -1269 -562 -1436 -1220 -58 -230 -55 248 -51
-6713 l3 -6385 21 -98 c82 -366 233 -643 485 -882 262 -250 564 -393 927 -440
103 -13 2884 -15 24421 -12 l24305 3 98 21 c54 12 136 34 183 48 532 162 963
615 1100 1152 58 230 55 -248 51 6713 l-3 6385 -21 98 c-82 366 -233 643 -485
882 -261 249 -563 393 -925 440 -101 13 -2900 15 -24376 13 -13344 0 -24278
-3 -24297 -5z m23310 -7058 l0 -145 -515 0 -515 0 0 -320 0 -320 450 0 450 0
0 -145 0 -145 -450 0 -450 0 0 -455 0 -455 -180 0 -180 0 0 1065 0 1065 695 0
695 0 0 -145z m700 -775 l0 -920 510 0 510 0 0 -145 0 -145 -685 0 -685 0 0
1065 0 1065 175 0 175 0 0 -920z m1599 883 c6 -21 104 -377 218 -790 113 -414
209 -753 212 -753 3 0 82 276 175 613 93 336 192 692 219 790 l50 177 192 0
192 0 -327 -1062 -327 -1063 -174 0 -174 0 -315 1025 c-173 564 -320 1042
-327 1063 l-11 37 193 0 194 0 10 -37z"/>
<path d="M85330 44233 c-687 -67 -1269 -562 -1436 -1220 -58 -230 -55 248 -51
-6713 l3 -6385 21 -98 c82 -366 233 -643 485 -882 262 -250 564 -393 927 -440
103 -13 2884 -15 24421 -12 l24305 3 98 21 c54 12 136 34 183 48 532 162 963
615 1100 1152 58 230 55 -248 51 6713 l-3 6385 -21 98 c-82 366 -233 643 -485
882 -261 249 -563 393 -925 440 -101 13 -2900 15 -24376 13 -13344 0 -24278
-3 -24297 -5z m24539 -6918 c248 -84 413 -284 499 -604 24 -91 26 -112 30
-405 4 -350 -5 -438 -62 -609 -88 -260 -258 -434 -496 -509 -99 -30 -310 -33
-405 -4 -303 91 -497 354 -550 746 -17 124 -20 492 -5 625 16 136 54 268 116
394 49 100 66 125 142 201 97 97 180 147 306 181 57 15 97 18 206 16 117 -3
146 -7 219 -32z m-2094 -445 c71 -248 132 -445 136 -438 3 7 69 210 145 450
l139 438 223 0 222 0 0 -1065 0 -1065 -172 0 -171 0 6 553 c4 303 9 674 12
822 l5 270 -94 -285 c-52 -157 -125 -378 -161 -492 l-67 -208 -94 0 -93 0 -20
68 c-219 729 -266 879 -269 849 -2 -17 1 -255 7 -527 6 -272 11 -620 11 -772
l0 -278 -170 0 -170 0 0 1065 0 1065 223 0 222 0 130 -450z m3164 413 c6 -21
104 -377 218 -790 113 -414 209 -753 212 -753 3 0 82 276 175 613 93 336 192
692 219 790 l50 177 192 0 192 0 -327 -1062 -327 -1063 -174 0 -174 0 -315
1025 c-173 564 -320 1042 -327 1063 l-11 37 193 0 194 0 10 -37z"/>
<path d="M109500 37029 c-116 -46 -210 -182 -247 -359 -15 -73 -18 -135 -18
-425 1 -335 1 -341 27 -436 45 -164 107 -258 209 -314 50 -28 61 -30 159 -30
91 0 112 3 155 25 113 55 198 186 237 365 20 90 22 129 22 400 0 269 -2 310
-21 398 -39 178 -121 305 -234 363 -75 39 -208 44 -289 13z"/>
<path d="M68946 43524 l-26 -27 0 -408 c0 -278 4 -416 11 -432 15 -34 50 -51
88 -42 62 13 61 7 61 466 l0 416 -26 27 c-16 15 -38 26 -54 26 -16 0 -38 -11
-54 -26z"/>
<path d="M68945 42275 l-25 -24 0 -416 0 -417 29 -29 c36 -36 60 -37 100 -3
l31 26 0 419 0 420 -25 24 c-15 16 -36 25 -55 25 -19 0 -40 -9 -55 -25z"/>
<path d="M68945 41025 l-25 -24 0 -415 0 -415 23 -26 c31 -37 82 -37 114 -1
l23 27 0 413 c0 403 -1 414 -21 440 -28 35 -80 36 -114 1z"/>
<path d="M68974 39800 c-54 -21 -54 -22 -54 -466 0 -401 1 -412 21 -438 28
-35 80 -36 114 -1 l25 24 0 415 0 415 -22 25 c-27 29 -55 38 -84 26z"/>
<path d="M68949 38531 l-29 -29 0 -417 0 -416 25 -24 c15 -16 36 -25 55 -25
19 0 40 9 55 25 l25 24 0 416 0 417 -29 29 c-16 16 -39 29 -51 29 -12 0 -35
-13 -51 -29z"/>
<path d="M68946 37284 l-26 -27 0 -241 c0 -241 0 -241 -30 -324 -31 -90 -29
-120 10 -144 17 -11 20 -23 20 -74 0 -80 24 -114 79 -114 40 0 63 17 78 58 9
23 9 23 58 -16 57 -45 95 -66 174 -95 50 -19 83 -21 328 -25 l273 -4 30 30
c38 38 38 66 1 103 l-29 29 -247 0 c-222 0 -252 2 -307 21 -96 32 -176 96
-226 180 -43 72 -52 138 -52 385 l0 231 -26 27 c-16 15 -38 26 -54 26 -16 0
-38 -11 -54 -26z"/>
<path d="M54883 36752 c-28 -15 -175 -99 -328 -187 -285 -165 -304 -180 -286
-227 11 -27 633 -390 669 -390 12 0 32 8 42 17 19 17 20 33 20 395 0 347 -1
378 -17 392 -32 27 -50 27 -100 0z"/>
<path d="M83050 36772 c-8 -2 -23 -11 -32 -20 -17 -14 -18 -45 -18 -387 0
-345 1 -374 18 -395 10 -12 29 -22 43 -22 37 0 659 362 670 390 18 48 1 61
-321 247 -337 194 -338 194 -360 187z"/>
<path d="M68675 36472 c-59 -26 -66 -27 -327 -32 -259 -5 -268 -6 -289 -27
-32 -31 -30 -80 5 -110 27 -23 30 -23 270 -23 207 0 254 3 319 19 139 36 192
81 168 142 -21 57 -65 66 -146 31z"/>
<path d="M55046 36419 c-20 -16 -26 -29 -26 -59 0 -30 6 -43 26 -59 26 -21 37
-21 450 -21 293 0 431 3 448 11 29 14 51 59 41 89 -4 11 -16 30 -28 40 -20 19
-37 20 -453 20 -421 0 -432 0 -458 -21z"/>
<path d="M56345 36415 c-33 -32 -33 -78 0 -111 l25 -25 441 3 441 3 19 24 c26
32 24 77 -6 106 l-24 25 -436 0 -436 0 -24 -25z"/>
<path d="M57645 36415 c-16 -15 -25 -36 -25 -55 0 -19 9 -40 25 -55 l24 -25
436 0 436 0 24 25 c16 15 25 36 25 55 0 19 -9 40 -25 55 l-24 25 -436 0 -436
0 -24 -25z"/>
<path d="M58959 36427 c-44 -34 -47 -89 -7 -127 21 -19 34 -20 454 -20 421 0
432 0 458 21 20 16 26 29 26 59 0 30 -6 43 -26 59 -26 21 -37 21 -458 21 -323
-1 -435 -4 -447 -13z"/>
<path d="M60249 36411 c-16 -16 -29 -39 -29 -51 0 -12 13 -35 29 -51 l29 -29
431 0 430 0 27 23 c20 17 27 33 27 57 0 24 -7 40 -27 57 l-27 23 -430 0 -431
0 -29 -29z"/>
<path d="M61556 36419 c-20 -16 -26 -29 -26 -59 0 -30 6 -43 26 -59 26 -21 37
-21 456 -21 l430 0 29 29 c36 36 37 60 3 100 l-26 31 -433 0 c-422 0 -433 0
-459 -21z"/>
<path d="M62856 36419 c-35 -28 -36 -80 -1 -115 l25 -25 441 3 441 3 19 24
c27 33 24 73 -7 105 l-27 26 -432 0 c-422 0 -433 0 -459 -21z"/>
<path d="M64155 36415 c-16 -15 -25 -36 -25 -55 0 -19 9 -40 25 -55 l24 -25
436 0 436 0 24 25 c16 15 25 36 25 55 0 19 -9 40 -25 55 l-24 25 -436 0 -436
0 -24 -25z"/>
<path d="M65456 36415 c-34 -32 -35 -77 -1 -110 l24 -25 436 0 436 0 24 25
c16 15 25 36 25 55 0 19 -9 40 -25 55 l-24 25 -434 0 -434 0 -27 -25z"/>
<path d="M66769 36427 c-44 -34 -47 -89 -7 -127 21 -19 34 -20 454 -20 421 0
432 0 458 21 20 16 26 29 26 59 0 30 -6 43 -26 59 -26 21 -37 21 -458 21 -323
-1 -435 -4 -447 -13z"/>
<path d="M70326 36419 c-20 -16 -26 -29 -26 -59 0 -30 6 -43 26 -59 26 -21 37
-21 450 -21 232 0 434 4 447 9 28 11 52 61 42 91 -4 11 -16 30 -28 40 -20 19
-37 20 -453 20 -421 0 -432 0 -458 -21z"/>
<path d="M71625 36415 c-33 -32 -33 -78 0 -111 l25 -25 441 3 441 3 19 24 c26
32 24 77 -6 106 l-24 25 -436 0 -436 0 -24 -25z"/>
<path d="M72925 36415 c-16 -15 -25 -36 -25 -55 0 -19 9 -40 25 -55 l24 -25
436 0 436 0 24 25 c16 15 25 36 25 55 0 19 -9 40 -25 55 l-24 25 -436 0 -436
0 -24 -25z"/>
<path d="M74239 36427 c-44 -34 -47 -89 -7 -127 21 -19 34 -20 454 -20 421 0
432 0 458 21 20 16 26 29 26 59 0 30 -6 43 -26 59 -26 21 -37 21 -458 21 -323
-1 -435 -4 -447 -13z"/>
<path d="M75529 36411 c-16 -16 -29 -39 -29 -51 0 -12 13 -35 29 -51 l29 -29
431 0 430 0 27 23 c20 17 27 33 27 57 0 24 -7 40 -27 57 l-27 23 -430 0 -431
0 -29 -29z"/>
<path d="M76836 36419 c-20 -16 -26 -29 -26 -59 0 -30 6 -43 26 -59 26 -21 37
-21 456 -21 l430 0 29 29 c36 36 37 60 3 100 l-26 31 -433 0 c-422 0 -433 0
-459 -21z"/>
<path d="M78136 36419 c-35 -28 -36 -80 -1 -115 l25 -25 440 3 441 3 19 25
c27 35 25 72 -6 104 l-27 26 -432 0 c-422 0 -433 0 -459 -21z"/>
<path d="M79435 36415 c-16 -15 -25 -36 -25 -55 0 -19 9 -40 25 -55 l24 -25
436 0 436 0 24 25 c16 15 25 36 25 55 0 19 -9 40 -25 55 l-24 25 -436 0 -436
0 -24 -25z"/>
<path d="M80736 36415 c-34 -32 -35 -77 -1 -110 l24 -25 436 0 436 0 24 25
c16 15 25 36 25 55 0 19 -9 40 -25 55 l-24 25 -434 0 -434 0 -27 -25z"/>
<path d="M82053 36428 c-27 -13 -47 -59 -38 -88 4 -11 16 -30 28 -40 20 -19
37 -20 453 -20 421 0 432 0 458 21 20 16 26 29 26 59 0 30 -6 43 -26 59 -26
21 -36 21 -453 20 -277 0 -434 -4 -448 -11z"/>
<path d="M68965 36018 c-45 -26 -44 -23 -45 -476 l0 -433 25 -24 c32 -33 78
-33 110 0 l25 24 0 433 c-1 456 0 452 -47 476 -27 15 -42 15 -68 0z"/>
<path d="M68945 34705 l-25 -24 0 -430 0 -430 23 -27 c17 -20 33 -27 57 -27
24 0 40 7 57 27 l23 27 0 430 0 430 -25 24 c-15 16 -36 25 -55 25 -19 0 -40
-9 -55 -25z"/>
<path d="M68949 33411 l-29 -29 0 -432 0 -431 25 -24 c32 -33 78 -33 110 0
l25 24 0 431 0 432 -29 29 c-16 16 -39 29 -51 29 -12 0 -35 -13 -51 -29z"/>
<path d="M68945 32115 l-25 -24 0 -425 c0 -295 3 -433 11 -450 14 -29 59 -51
89 -41 11 4 30 16 40 28 19 20 20 37 20 454 l0 434 -25 24 c-15 16 -36 25 -55
25 -19 0 -40 -9 -55 -25z"/>
<path d="M68941 30814 c-21 -26 -21 -37 -21 -454 0 -417 0 -428 21 -454 16
-20 29 -26 59 -26 30 0 43 6 59 26 21 26 21 37 21 454 0 417 0 428 -21 454
-16 20 -29 26 -59 26 -30 0 -43 -6 -59 -26z"/>
<path d="M68965 29538 c-45 -26 -44 -23 -45 -476 l0 -433 25 -24 c32 -33 78
-33 110 0 l25 24 0 433 c-1 456 0 452 -47 476 -27 15 -42 15 -68 0z"/>
<path d="M68945 28225 l-25 -24 0 -430 0 -430 23 -27 c17 -20 33 -27 57 -27
24 0 40 7 57 27 l23 27 0 430 0 430 -25 24 c-15 16 -36 25 -55 25 -19 0 -40
-9 -55 -25z"/>
<path d="M68949 26931 l-29 -29 0 -432 0 -431 25 -24 c32 -33 78 -33 110 0
l25 24 0 431 0 432 -29 29 c-16 16 -39 29 -51 29 -12 0 -35 -13 -51 -29z"/>
<path d="M68945 25635 l-25 -24 0 -425 c0 -295 3 -433 11 -450 14 -29 59 -51
89 -41 11 4 30 16 40 28 19 20 20 37 20 454 l0 434 -25 24 c-15 16 -36 25 -55
25 -19 0 -40 -9 -55 -25z"/>
<path d="M68941 24334 c-21 -26 -21 -37 -21 -454 0 -417 0 -428 21 -454 16
-20 29 -26 59 -26 30 0 43 6 59 26 21 26 21 37 21 454 0 417 0 428 -21 454
-16 20 -29 26 -59 26 -30 0 -43 -6 -59 -26z"/>
<path d="M68965 23058 c-45 -26 -44 -23 -45 -476 l0 -433 25 -24 c32 -33 78
-33 110 0 l25 24 0 433 c-1 456 0 452 -47 476 -27 15 -42 15 -68 0z"/>
<path d="M68945 21745 l-25 -24 0 -430 0 -430 23 -27 c17 -20 33 -27 57 -27
24 0 40 7 57 27 l23 27 0 430 0 430 -25 24 c-15 16 -36 25 -55 25 -19 0 -40
-9 -55 -25z"/>
<path d="M68949 20451 l-29 -29 0 -432 0 -431 25 -24 c15 -16 36 -25 55 -25
19 0 40 9 55 25 l25 24 0 431 0 432 -29 29 c-16 16 -39 29 -51 29 -12 0 -35
-13 -51 -29z"/>
<path d="M68945 19155 l-25 -24 0 -425 c0 -295 3 -433 11 -450 14 -29 59 -51
89 -41 11 4 30 16 40 28 19 20 20 37 20 454 l0 434 -25 24 c-15 16 -36 25 -55
25 -19 0 -40 -9 -55 -25z"/>
<path d="M4050 18313 c-687 -67 -1269 -562 -1436 -1220 -58 -230 -55 248 -51
-6713 l3 -6385 21 -98 c82 -366 233 -643 485 -882 262 -250 564 -393 927 -440
103 -13 2884 -15 24421 -12 l24305 3 98 21 c54 12 136 34 183 48 532 162 963
615 1100 1152 58 230 55 -248 51 6713 l-3 6385 -21 98 c-82 366 -233 643 -485
882 -261 249 -563 393 -925 440 -101 13 -2900 15 -24376 13 -13344 0 -24278
-3 -24297 -5z m21278 -7575 c41 -365 77 -671 80 -681 4 -10 54 280 111 645 57
365 106 671 109 681 4 15 19 17 138 17 130 0 134 -1 139 -22 2 -13 52 -318
110 -678 58 -360 107 -659 109 -665 4 -16 10 31 87 718 l73 647 163 0 c163 0
163 0 163 -22 -1 -13 -63 -491 -139 -1063 l-137 -1040 -167 -3 c-166 -2 -167
-2 -172 20 -3 13 -52 311 -110 663 -58 352 -108 653 -112 668 -6 20 -39 -161
-117 -640 -59 -367 -110 -678 -113 -690 -5 -23 -7 -23 -172 -23 l-166 0 -138
1058 c-76 581 -138 1060 -137 1065 0 4 73 7 163 7 l162 0 73 -662z m2882 517
l0 -145 -515 0 -515 0 0 -300 0 -300 445 0 445 0 0 -140 0 -140 -442 -2 -443
-3 -3 -332 -2 -333 515 0 515 0 0 -145 0 -145 -690 0 -690 0 0 1065 0 1065
690 0 690 0 0 -145z m1295 117 c132 -37 238 -93 308 -164 105 -106 147 -212
147 -369 0 -190 -91 -345 -252 -428 -47 -24 -56 -32 -42 -37 62 -20 151 -72
197 -114 97 -89 149 -219 149 -375 1 -113 -13 -177 -59 -274 -69 -146 -219
-259 -418 -313 -76 -21 -104 -22 -537 -26 l-458 -3 0 1066 0 1066 443 -3 c419
-4 446 -5 522 -26z m1321 -421 c71 -247 131 -447 133 -445 2 2 68 203 146 447
l141 442 222 3 222 2 0 -1065 0 -1065 -165 0 -165 0 1 548 c1 301 4 673 8 827
3 154 6 281 5 283 -1 2 -32 -90 -69 -205 -36 -114 -109 -340 -161 -500 l-95
-293 -93 0 -93 0 -143 475 c-79 261 -145 473 -148 471 -2 -3 1 -213 7 -468 6
-254 11 -615 11 -800 l0 -338 -165 0 -165 0 0 1065 0 1065 218 0 218 0 130
-449z"/>
<path d="M28900 10804 l0 -306 213 4 c183 4 221 8 278 26 85 28 147 76 184
143 27 49 30 62 29 139 -1 122 -38 192 -129 245 -71 42 -159 55 -377 55 l-198
0 0 -306z"/>
<path d="M28900 9896 l0 -336 215 0 c228 0 291 8 367 46 70 35 114 78 145 142
25 50 28 68 28 152 -1 75 -5 105 -22 141 -31 69 -85 122 -155 155 l-63 29
-257 3 -258 3 0 -335z"/>
<path d="M85330 18313 c-687 -67 -1269 -562 -1436 -1220 -58 -230 -55 248 -51
-6713 l3 -6385 21 -98 c82 -366 233 -643 485 -882 262 -250 564 -393 927 -440
103 -13 2884 -15 24421 -12 l24305 3 98 21 c54 12 136 34 183 48 532 162 963
615 1100 1152 58 230 55 -248 51 6713 l-3 6385 -21 98 c-82 366 -233 643 -485
882 -261 249 -563 393 -925 440 -101 13 -2900 15 -24376 13 -13344 0 -24278
-3 -24297 -5z m22794 -7025 c20 -62 172 -540 340 -1063 l304 -950 -180 -3
c-100 -1 -182 -1 -184 0 -1 2 -26 82 -54 178 -28 96 -60 205 -71 243 l-20 67
-334 0 -334 0 -14 -47 c-8 -27 -40 -137 -72 -245 l-58 -198 -185 0 c-143 0
-183 3 -179 13 7 20 647 1986 668 2055 l20 62 159 0 159 0 35 -112z m1291
-684 c150 -545 222 -791 227 -778 4 11 100 354 213 764 113 410 210 760 216
778 l11 32 190 0 190 0 -5 -22 c-5 -20 -514 -1677 -613 -1995 l-35 -113 -172
0 -173 0 -323 1053 c-178 578 -326 1058 -328 1065 -4 9 38 12 189 12 l195 0
218 -796z m2585 651 l0 -145 -230 0 -230 0 0 -775 0 -775 230 0 230 0 0 -145
0 -145 -630 0 -630 0 0 145 0 145 225 0 225 0 0 775 0 775 -225 0 -225 0 0
145 0 145 630 0 630 0 0 -145z"/>
<path d="M107806 10489 c-64 -221 -120 -408 -123 -415 -4 -12 36 -14 241 -14
135 0 246 3 246 6 0 14 -233 810 -239 816 -4 4 -60 -173 -125 -393z"/>
<path d="M68941 17854 c-21 -26 -21 -37 -21 -454 0 -417 0 -428 21 -454 16
-20 29 -26 59 -26 30 0 43 6 59 26 21 26 21 37 21 454 0 417 0 428 -21 454
-16 20 -29 26 -59 26 -30 0 -43 -6 -59 -26z"/>
<path d="M68965 16578 c-45 -26 -44 -23 -45 -476 l0 -433 25 -24 c15 -16 36
-25 55 -25 19 0 40 9 55 25 l25 24 0 433 c-1 456 0 452 -47 476 -27 15 -42 15
-68 0z"/>
<path d="M68945 15265 l-25 -24 0 -430 0 -430 23 -27 c17 -20 33 -27 57 -27
24 0 40 7 57 27 l23 27 0 430 0 430 -25 24 c-15 16 -36 25 -55 25 -19 0 -40
-9 -55 -25z"/>
<path d="M68949 13971 l-29 -29 0 -432 0 -431 25 -24 c15 -16 36 -25 55 -25
19 0 40 9 55 25 l25 24 0 431 0 432 -29 29 c-16 16 -39 29 -51 29 -12 0 -35
-13 -51 -29z"/>
<path d="M68945 12675 l-25 -24 0 -425 c0 -295 3 -433 11 -450 14 -29 59 -51
89 -41 11 4 30 16 40 28 19 20 20 37 20 454 l0 434 -25 24 c-15 16 -36 25 -55
25 -19 0 -40 -9 -55 -25z"/>
<path d="M68941 11374 c-20 -25 -21 -39 -21 -271 0 -220 -2 -250 -21 -305 -32
-96 -96 -176 -180 -226 -72 -43 -137 -52 -391 -52 -234 0 -237 0 -264 -23 -20
-17 -27 -33 -27 -57 0 -24 7 -40 27 -57 27 -23 30 -23 270 -23 273 0 344 11
458 72 81 43 177 141 222 228 56 107 66 169 66 446 0 229 -1 243 -21 268 -16
20 -29 26 -59 26 -30 0 -43 -6 -59 -26z"/>
<path d="M54883 10832 c-28 -15 -175 -99 -328 -187 -285 -165 -304 -180 -286
-227 11 -27 633 -390 669 -390 12 0 32 8 42 17 19 17 20 33 20 395 0 347 -1
378 -17 392 -32 27 -50 27 -100 0z"/>
<path d="M83050 10852 c-8 -2 -23 -11 -32 -20 -17 -14 -18 -45 -18 -387 0
-345 1 -374 18 -395 10 -12 29 -22 43 -22 37 0 659 362 670 390 18 48 1 61
-321 247 -337 194 -338 194 -360 187z"/>
<path d="M55046 10499 c-20 -16 -26 -29 -26 -59 0 -30 6 -43 26 -59 26 -21 37
-21 450 -21 293 0 431 3 448 11 29 14 51 59 41 89 -4 11 -16 30 -28 40 -20 19
-37 20 -453 20 -421 0 -432 0 -458 -21z"/>
<path d="M56345 10495 c-33 -32 -33 -78 0 -111 l25 -25 441 3 441 3 19 24 c26
32 24 77 -6 106 l-24 25 -436 0 -436 0 -24 -25z"/>
<path d="M57645 10495 c-16 -15 -25 -36 -25 -55 0 -19 9 -40 25 -55 l24 -25
436 0 436 0 24 25 c16 15 25 36 25 55 0 19 -9 40 -25 55 l-24 25 -436 0 -436
0 -24 -25z"/>
<path d="M58959 10507 c-44 -34 -47 -89 -7 -127 21 -19 34 -20 454 -20 421 0
432 0 458 21 20 16 26 29 26 59 0 30 -6 43 -26 59 -26 21 -37 21 -458 21 -323
-1 -435 -4 -447 -13z"/>
<path d="M60249 10491 c-16 -16 -29 -39 -29 -51 0 -12 13 -35 29 -51 l29 -29
431 0 430 0 27 23 c20 17 27 33 27 57 0 24 -7 40 -27 57 l-27 23 -430 0 -431
0 -29 -29z"/>
<path d="M61556 10499 c-20 -16 -26 -29 -26 -59 0 -30 6 -43 26 -59 26 -21 37
-21 456 -21 l430 0 29 29 c36 36 37 60 3 100 l-26 31 -433 0 c-422 0 -433 0
-459 -21z"/>
<path d="M62856 10499 c-35 -28 -36 -80 -1 -115 l25 -25 441 3 441 3 19 24
c27 33 24 73 -7 105 l-27 26 -432 0 c-422 0 -433 0 -459 -21z"/>
<path d="M64155 10495 c-16 -15 -25 -36 -25 -55 0 -19 9 -40 25 -55 l24 -25
436 0 436 0 24 25 c16 15 25 36 25 55 0 19 -9 40 -25 55 l-24 25 -436 0 -436
0 -24 -25z"/>
<path d="M65455 10495 c-16 -15 -25 -36 -25 -55 0 -19 9 -40 25 -55 l24 -25
436 0 436 0 24 25 c16 15 25 36 25 55 0 19 -9 40 -25 55 l-24 25 -436 0 -436
0 -24 -25z"/>
<path d="M66773 10508 c-27 -13 -47 -59 -38 -88 4 -11 16 -30 28 -40 20 -19
37 -20 453 -20 421 0 432 0 458 21 20 16 26 29 26 59 0 30 -6 43 -26 59 -26
21 -36 21 -453 20 -277 0 -434 -4 -448 -11z"/>
<path d="M69266 10494 c-28 -29 -32 -53 -14 -87 23 -45 32 -46 276 -47 l233 0
24 25 c16 15 25 36 25 55 0 19 -9 40 -25 55 l-24 25 -234 0 -234 0 -27 -26z"/>
<path d="M70176 10499 c-20 -16 -26 -29 -26 -59 0 -30 6 -43 26 -59 26 -21 37
-21 461 -21 l435 0 29 29 c36 36 37 60 3 100 l-26 31 -438 0 c-427 0 -438 0
-464 -21z"/>
<path d="M71499 10507 c-44 -34 -47 -89 -7 -127 21 -19 34 -20 459 -20 426 0
437 0 463 21 20 16 26 29 26 59 0 30 -6 43 -26 59 -26 21 -37 21 -463 21 -327
-1 -440 -4 -452 -13z"/>
<path d="M72805 10495 c-33 -32 -33 -78 0 -111 l25 -25 446 3 446 3 19 24 c26
32 24 77 -6 106 l-24 25 -441 0 -441 0 -24 -25z"/>
<path d="M74125 10498 c-37 -32 -37 -83 -1 -115 l27 -23 435 0 436 0 29 29
c16 16 29 39 29 51 0 12 -13 35 -29 51 l-29 29 -436 0 -435 0 -26 -22z"/>
<path d="M75449 10507 c-44 -34 -47 -89 -7 -127 21 -19 34 -20 460 -20 l439 0
24 25 c16 15 25 36 25 55 0 19 -9 40 -25 55 l-24 25 -438 0 c-329 -1 -442 -4
-454 -13z"/>
<path d="M76755 10495 c-33 -32 -33 -78 0 -111 l25 -25 446 3 446 3 19 24 c27
33 24 73 -7 105 l-27 26 -439 0 -439 0 -24 -25z"/>
<path d="M78074 10497 c-20 -17 -27 -33 -27 -57 0 -24 7 -40 27 -57 l27 -23
434 0 434 0 27 23 c20 17 27 33 27 57 0 24 -7 40 -27 57 l-27 23 -434 0 -434
0 -27 -23z"/>
<path d="M79386 10495 c-34 -32 -35 -77 -1 -110 l24 -25 441 0 441 0 24 25
c16 15 25 36 25 55 0 19 -9 40 -25 55 l-24 25 -439 0 -439 0 -27 -25z"/>
<path d="M80706 10499 c-35 -28 -36 -80 -1 -114 l24 -25 430 0 c298 0 438 3
455 11 29 14 51 59 41 89 -4 11 -16 30 -28 40 -20 19 -37 20 -458 20 -426 0
-437 0 -463 -21z"/>
<path d="M82019 10491 c-16 -16 -29 -39 -29 -51 0 -12 13 -35 29 -51 l29 -29
435 0 c424 0 435 0 461 21 20 16 26 29 26 59 0 30 -6 43 -26 59 -26 21 -37 21
-461 21 l-435 0 -29 -29z"/>
</g>
</svg>
